PLOT

A group of college students on a road trip to hell when they stumble across a small Texas town
with an entire economy based upon stealing cars. Unfortunately, for them, cars aren't the only
things getting chopped.
 
http://www.imdb.com/title/tt1331302/

Encoded By .......: BigPerm1828
Runtime ..........: 1h 28mn
File Size ........: 801 MB
Resolution .......: 704x396
IMDb URL .........: http://www.imdb.com/title/tt1331302/
Genre ............: Horror
Language .........: English
Video
ID : 0
Format : MPEG-4 Visual
Format profile : Advanced Simple@L5
Format settings, BVOP : Yes
Format settings, QPel : No
Format settings, GMC : No warppoints
Format settings, Matrix : Default (H.263)
Codec ID : XVID
Codec ID/Hint : XviD
Duration : 1h 28mn
Bit rate : 1 073 Kbps
Width : 704 pixels
Height : 396 pixels
Display aspect ratio : 16:9
Frame rate : 23.976 fps
Color space : YUV
Chroma subsampling : 4:2:0
Bit depth : 8 bits
Scan type : Progressive
Compression mode : Lossy
Bits/(Pixel*Frame) : 0.160
Stream size : 677 MiB (84%)
Writing library : XviD 1.2.1 (UTC 2008-12-04)

Audio
ID : 1
Format : AC-3
Format/Info : Audio Coding 3
Mode extension : CM (complete main)
Codec ID : 2000
Duration : 1h 28mn
Bit rate mode : Constant
Bit rate : 192 Kbps
Channel(s) : 2 channels
Channel positions : Front: L R
Sampling rate : 48.0 KHz
Bit depth : 16 bits
Compression mode : Lossy
Video delay : 42ms
Stream size : 121 MiB (15%)
Alignment : Split accross interleaves
Interleave, duration : 500 ms (11.99 video frames)
Interleave, preload duration : 500 ms
 
http://leetleech.org/images/05765029839334107962.png
 
http://leetleech.org/images/77832917800759240738.png
 
http://leetleech.org/images/46653393204281502063.png
 
http://leetleech.org/images/27837216694949559865.png
 
http://leetleech.org/images/12321032182602167622.png